<?xml version="1.0" encoding="UTF-8"?>
<svg id="Layer_1" data-name="Layer 1" xmlns="http://www.w3.org/2000/svg" viewBox="0 0 1403.06 774.22">
  <defs>
    <style>
      .cls-1 {
        fill: #5c49f7;
      }

      .cls-2 {
        fill: #a19cff;
      }

      .cls-3 {
        fill: #2f248b;
      }
    </style>
  </defs>
  <g>
    <path class="cls-3" d="M640.5,344.49c-18.42,0-33.34,14.92-33.34,33.47v58.39h12.85v-34.25c4.8,5.7,11.81,9.34,20.5,9.34,18.43,0,33.48-14.92,33.48-33.48s-15.05-33.47-33.48-33.47ZM640.5,399.12c-11.68,0-20.76-9.34-20.76-21.16s8.96-21.14,20.76-21.14,20.76,9.34,20.76,21.14-8.94,21.16-20.76,21.16Z"/>
    <path class="cls-3" d="M709.67,345.26v12.33h-1.3c-9.08,0-14.54,5.84-14.54,18.94v33.87h-12.71v-33.87c0-21.54,11.55-31.27,27.25-31.27h1.3Z"/>
    <path class="cls-3" d="M746.39,344.49c-18.42,0-33.47,14.92-33.47,33.47s15.05,33.48,33.47,33.48c9.22,0,17.53-4.94,20.64-11.28v10.24h12.72v-32.44c0-18.55-14.92-33.47-33.36-33.47ZM746.53,399.12c-11.82,0-20.9-9.34-20.9-21.16s8.96-21.14,20.9-21.14,20.64,9.34,20.64,21.14-8.83,21.16-20.64,21.16Z"/>
    <path class="cls-3" d="M837.09,391.71c.13,13.24-10.9,19.73-25.43,19.73-13.37,0-25.43-7.26-25.43-20.51h12.19c0,5.59,5.84,9.08,13.5,9.08,8.05,0,12.47-3.5,12.47-8.56-.14-14.67-37.12-3.5-37.12-28.68,0-10.9,10.65-18.29,24.01-18.29s23.75,7,23.75,19.46h-12.2c0-5.06-5.45-8.18-11.81-8.18s-11.03,3.12-11.03,7.91c0,12.98,36.73,2.99,37.11,28.03Z"/>
    <polygon class="cls-3" points="894.32 398.07 894.32 410.4 842.28 410.4 842.28 398.07 876.93 357.84 844.1 357.84 844.1 345.52 893.16 345.52 893.16 357.84 858.38 398.07 894.32 398.07"/>
    <path class="cls-3" d="M929.75,344.49c-18.56,0-33.48,14.92-33.48,33.47s14.92,33.48,33.48,33.48,33.47-14.92,33.47-33.48-14.92-33.47-33.47-33.47ZM929.88,399.12c-11.81,0-20.89-9.34-20.89-21.16s8.96-21.14,20.89-21.14,20.64,9.34,20.64,21.14-8.83,21.16-20.64,21.16Z"/>
  </g>
  <g>
    <g>
      <path class="cls-1" d="M574,361.29s0,.13-.03.36h-72.71l-58.14-61.89h74.61s56.42,2.05,56.26,61.54Z"/>
      <path class="cls-3" d="M573.98,361.65c-.18,5.2-5.5,64.48-72.71,60.06v-60.06h72.71Z"/>
    </g>
    <path class="cls-2" d="M439.84,423.1v51.37h61.43v-112.82c-33.92,0-61.43,27.52-61.43,61.45Z"/>
  </g>
</svg>